<svg width="271" height="271" viewBox="0 0 271 271" fill="none" xmlns="http://www.w3.org/2000/svg">
<g clip-path="url(#clip0_2036_8)">
<path d="M218.6 0H52.4004C23.5008 0 0 23.5008 0 52.4004V107.765V218.705C0 247.605 23.5008 271.106 52.4004 271.106H218.6C247.499 271.106 271 247.605 271 218.705V107.659V52.2945C270.894 23.5008 247.393 0 218.6 0ZM233.632 31.2285H239.666V37.1566V77.1715L193.829 77.2773L193.723 31.3344L233.632 31.2285ZM96.7555 107.659C105.436 95.6969 119.515 87.7574 135.394 87.7574C151.273 87.7574 165.352 95.591 174.033 107.659C179.749 115.493 183.031 125.126 183.031 135.5C183.031 161.753 161.647 183.243 135.288 183.243C108.929 183.243 87.7574 161.753 87.7574 135.5C87.7574 125.126 91.1449 115.493 96.7555 107.659ZM244.535 218.6C244.535 232.891 232.891 244.535 218.6 244.535H52.4004C38.1094 244.535 26.4648 232.891 26.4648 218.6V107.659H66.9031C63.4098 116.234 61.3984 125.655 61.3984 135.5C61.3984 176.362 94.6383 209.602 135.5 209.602C176.362 209.602 209.602 176.362 209.602 135.5C209.602 125.655 207.59 116.234 204.097 107.659H244.535V218.6Z" fill="white"/>
</g>
<defs>
<clipPath id="clip0_2036_8">
<rect width="271" height="271" fill="white"/>
</clipPath>
</defs>
</svg>
